<svg width="104" height="65" viewBox="0 0 104 65" fill="none" xmlns="http://www.w3.org/2000/svg">
<path d="M25.8 59H28.125V43.575H33.75V41.6H20.2V43.575H25.8V59ZM43.5752 53.05C43.6002 52.725 43.6002 52.4 43.6002 52C43.6002 49.3 42.2752 46.025 38.1752 46.025C34.3252 46.025 32.4252 49.025 32.4252 52.8C32.4252 56.05 34.0502 59.3 38.0252 59.3C41.5002 59.3 42.8752 57.125 43.3752 55.5H41.1502C40.7502 56.425 40.1002 57.475 38.1002 57.475C35.9502 57.475 34.6502 55.625 34.6252 53.05H43.5752ZM34.7002 51.525C34.9252 49.3 35.9002 47.75 38.1502 47.75C40.3002 47.75 41.3502 49.425 41.3752 51.525H34.7002ZM46.4111 59H48.6111V52.3C48.6111 49.75 49.5611 47.925 51.9611 47.925C53.8861 47.925 54.6361 49.2 54.6361 51.125V59H56.8361V50.85C56.8361 47.475 54.9861 46.025 52.5861 46.025C50.1361 46.025 49.1111 47.325 48.6111 48.4C48.6111 48.025 48.5861 46.7 48.5111 46.325H46.3861C46.4111 47.3 46.4111 48.425 46.4111 49.525V59ZM68.9213 40.65V47.65C68.5963 46.925 67.5963 46.025 65.3463 46.025C61.8463 46.025 59.6713 48.9 59.6713 52.8C59.6713 56.65 61.6713 59.3 64.9463 59.3C67.0213 59.3 68.2963 58.525 68.9213 57.2C68.9213 57.7 68.9713 58.675 69.0463 59H71.1463C71.1213 57.775 71.1213 56.6 71.1213 55.425V40.65H68.9213ZM61.9463 52.725C61.9463 49.65 63.3213 47.875 65.5713 47.875C68.4213 47.875 69.0213 49.65 69.0213 52.475C69.0213 55.25 68.3463 57.45 65.3963 57.45C63.3963 57.45 61.9463 55.775 61.9463 52.725ZM74.8535 59H77.0535V52.85C77.0535 49.65 78.7035 48.275 81.3035 48.2V46.025C79.2035 46.075 77.7035 47.2 77.0535 48.9C77.0535 47.675 77.0035 46.675 76.9785 46.325H74.8285C74.8285 47 74.8535 48 74.8535 49.775V59ZM93.6973 53.05C93.7223 52.725 93.7223 52.4 93.7223 52C93.7223 49.3 92.3973 46.025 88.2973 46.025C84.4473 46.025 82.5473 49.025 82.5473 52.8C82.5473 56.05 84.1723 59.3 88.1473 59.3C91.6223 59.3 92.9973 57.125 93.4973 55.5H91.2723C90.8723 56.425 90.2223 57.475 88.2223 57.475C86.0723 57.475 84.7723 55.625 84.7473 53.05H93.6973ZM84.8223 51.525C85.0473 49.3 86.0223 47.75 88.2723 47.75C90.4223 47.75 91.4723 49.425 91.4973 51.525H84.8223Z" fill="#535353"/>
<path d="M9.42646 10.4065H32.6697V20.813L24.922 28.6179H9.42646V54.6341L1.67871 62.439V17.1707L9.42646 10.4065Z" fill="#535353" stroke="#F2F2F2" stroke-miterlimit="10"/>
<path d="M32.6697 10.4065L24.922 17.1707H1.67871L9.42646 10.4065H32.6697Z" fill="#535353" stroke="#F2F2F2" stroke-miterlimit="10"/>
</svg>
